<?xml version="1.0" standalone="no"?>
<!DOCTYPE svg PUBLIC "-//W3C//DTD SVG 20010904//EN"
 "http://www.w3.org/TR/2001/REC-SVG-20010904/DTD/svg10.dtd">
<svg version="1.0" xmlns="http://www.w3.org/2000/svg"
 width="32.000000pt" height="32.000000pt" viewBox="0 0 32.000000 32.000000"
 preserveAspectRatio="xMidYMid meet">
<metadata>
Created by potrace 1.10, written by Peter Selinger 2001-2011
</metadata>
<g transform="translate(0.000000,32.000000) scale(0.100000,-0.100000)"
fill="#000000" stroke="none">
<path d="M73 290 c-31 -18 -63 -65 -63 -91 0 -7 8 -5 20 6 20 18 20 17 20 -33
0 -54 -12 -73 -29 -45 -10 17 -10 17 -11 -2 0 -48 67 -115 116 -115 13 0 11 4
-7 19 -27 22 -23 25 48 35 51 7 66 -9 33 -36 -18 -14 -19 -18 -6 -18 30 0 76
30 96 63 24 39 26 69 5 61 -10 -4 -15 0 -15 15 0 38 -43 71 -92 71 -38 0 -46
4 -62 32 -18 30 -18 32 -1 45 18 13 18 13 -1 13 -10 0 -33 -9 -51 -20z m42
-60 c0 -22 -39 -19 -43 3 -3 15 1 18 20 15 12 -2 23 -10 23 -18z m-2 -95 c1
-53 -1 -60 -18 -60 -17 0 -20 8 -23 63 -3 60 -2 63 19 60 19 -3 21 -10 22 -63z
m133 40 c9 -14 14 -39 12 -62 -2 -30 -7 -38 -23 -38 -16 0 -21 8 -23 35 -1 19
-5 41 -8 49 -9 25 -28 -6 -28 -46 -1 -31 -5 -38 -21 -38 -18 0 -20 7 -22 61
l-2 62 50 0 c41 0 53 -4 65 -23z"/>
<path d="M215 281 c21 -15 51 -45 66 -66 22 -29 29 -34 29 -19 0 47 -68 114
-116 114 -12 0 -5 -10 21 -29z"/>
</g>
</svg>
